<svg width="649" height="717" viewBox="0 0 649 717" fill="none" xmlns="http://www.w3.org/2000/svg">
<path d="M511.149 234.387C502.548 221.045 470.568 210.301 434.345 208.584L432.227 207.64C446.854 218.195 453.82 230.234 452.178 242.121C451.234 248.962 447.511 255.705 445.742 262.523C444.769 266.27 445.992 271.024 455.373 272.34C461.715 273.23 468.714 271.991 474.297 270.551C504.407 262.787 519.751 247.729 511.149 234.387Z" fill="#F2F2F2"/>
<path d="M481.477 278.14H227.977C217.833 278.14 208.104 274.11 200.93 266.936C193.757 259.763 189.727 250.034 189.727 239.89C189.727 229.745 193.757 220.016 200.93 212.843C208.104 205.67 217.833 201.64 227.977 201.64H481.477C491.622 201.64 501.351 205.67 508.524 212.843C515.697 220.016 519.727 229.745 519.727 239.89C519.727 250.034 515.697 259.763 508.524 266.936C501.351 274.11 491.622 278.14 481.477 278.14ZM227.977 203.64C218.363 203.64 209.143 207.459 202.345 214.257C195.546 221.055 191.727 230.276 191.727 239.89C191.727 249.504 195.546 258.724 202.345 265.522C209.143 272.32 218.363 276.14 227.977 276.14H481.477C491.091 276.14 500.312 272.32 507.11 265.522C513.908 258.724 517.727 249.504 517.727 239.89C517.727 230.276 513.908 221.055 507.11 214.257C500.312 207.459 491.091 203.64 481.477 203.64H227.977Z" fill="#3F3D56"/>
<path d="M225.727 252.14C223.871 252.137 222.092 251.399 220.78 250.087C219.467 248.775 218.729 246.995 218.727 245.14V227.14C218.727 225.283 219.465 223.503 220.777 222.19C222.09 220.877 223.871 220.14 225.727 220.14C227.584 220.14 229.364 220.877 230.677 222.19C231.99 223.503 232.727 225.283 232.727 227.14V245.14C232.725 246.995 231.987 248.775 230.674 250.087C229.362 251.399 227.583 252.137 225.727 252.14Z" fill="#FF8F41"/>
<path d="M245.727 252.14C243.871 252.137 242.092 251.399 240.78 250.087C239.467 248.775 238.729 246.995 238.727 245.14V227.14C238.727 225.283 239.465 223.503 240.777 222.19C242.09 220.877 243.871 220.14 245.727 220.14C247.584 220.14 249.364 220.877 250.677 222.19C251.99 223.503 252.727 225.283 252.727 227.14V245.14C252.725 246.995 251.987 248.775 250.674 250.087C249.362 251.399 247.583 252.137 245.727 252.14Z" fill="#FF8F41"/>
<path d="M265.727 252.14C263.871 252.137 262.092 251.399 260.78 250.087C259.467 248.775 258.729 246.995 258.727 245.14V227.14C258.727 225.283 259.465 223.503 260.777 222.19C262.09 220.877 263.871 220.14 265.727 220.14C267.584 220.14 269.364 220.877 270.677 222.19C271.99 223.503 272.727 225.283 272.727 227.14V245.14C272.725 246.995 271.987 248.775 270.674 250.087C269.362 251.399 267.583 252.137 265.727 252.14Z" fill="#3B82F6"/>
<path d="M285.727 252.14C283.871 252.137 282.092 251.399 280.78 250.087C279.467 248.775 278.729 246.995 278.727 245.14V227.14C278.727 225.283 279.465 223.503 280.777 222.19C282.09 220.877 283.871 220.14 285.727 220.14C287.584 220.14 289.364 220.877 290.677 222.19C291.99 223.503 292.727 225.283 292.727 227.14V245.14C292.725 246.995 291.987 248.775 290.674 250.087C289.362 251.399 287.583 252.137 285.727 252.14Z" fill="#FF8F41"/>
<path d="M293.727 202.64H291.727V127.597H149.07V125.597H293.727V202.64Z" fill="#3F3D56"/>
<path d="M126.78 148.56C142.122 148.56 154.56 136.122 154.56 120.78C154.56 105.438 142.122 93 126.78 93C111.438 93 99 105.438 99 120.78C99 136.122 111.438 148.56 126.78 148.56Z" fill="#FF8F41"/>
<path d="M412.334 202.64H410.334V125.597H554.991V127.597H412.334V202.64Z" fill="#3F3D56"/>
<path d="M577.174 148.56C592.516 148.56 604.954 136.122 604.954 120.78C604.954 105.438 592.516 93 577.174 93C561.831 93 549.394 105.438 549.394 120.78C549.394 136.122 561.831 148.56 577.174 148.56Z" fill="#3B82F6"/>
<path d="M353.03 42.8931H351.03V202.64H353.03V42.8931Z" fill="#3F3D56"/>
<path d="M320.895 226.664C342.495 225.525 364.114 224.919 385.752 224.846C407.298 224.777 428.837 225.24 450.37 226.235C462.539 226.798 474.699 227.531 486.849 228.434C488.775 228.577 488.766 225.576 486.849 225.434C465.278 223.835 443.677 222.768 422.046 222.233C400.506 221.704 378.961 221.708 357.413 222.244C345.234 222.547 333.062 223.021 320.895 223.664C318.975 223.765 318.963 226.766 320.895 226.664Z" fill="#3F3D56"/>
<path d="M320.895 239.664C342.495 238.525 364.114 237.919 385.752 237.846C407.298 237.777 428.837 238.24 450.37 239.235C462.539 239.798 474.699 240.531 486.849 241.434C488.775 241.577 488.766 238.576 486.849 238.434C465.278 236.835 443.677 235.768 422.046 235.233C400.506 234.704 378.961 234.708 357.413 235.244C345.234 235.547 333.062 236.021 320.895 236.664C318.975 236.765 318.963 239.766 320.895 239.664Z" fill="#3F3D56"/>
<path d="M320.895 252.664C342.495 251.525 364.114 250.919 385.752 250.846C407.298 250.777 428.837 251.24 450.37 252.235C462.539 252.798 474.699 253.531 486.849 254.434C488.775 254.577 488.766 251.576 486.849 251.434C465.278 249.835 443.677 248.768 422.046 248.233C400.506 247.704 378.961 247.708 357.413 248.244C345.234 248.547 333.062 249.021 320.895 249.664C318.975 249.765 318.963 252.766 320.895 252.664Z" fill="#3F3D56"/>
<path d="M634.122 645.502H51.1865C47.5785 645.498 44.1194 644.063 41.5681 641.511C39.0168 638.96 37.5817 635.501 37.5775 631.893V511.17C37.5817 507.562 39.0168 504.103 41.5681 501.552C44.1194 499 47.5785 497.565 51.1865 497.561H634.122C637.73 497.565 641.189 499 643.74 501.552C646.292 504.103 647.727 507.562 647.731 511.17V631.893C647.727 635.501 646.292 638.96 643.74 641.511C641.189 644.063 637.73 645.498 634.122 645.502Z" fill="#E6E6E6"/>
<path d="M594.778 636.322H60.3681C56.7601 636.318 53.301 634.883 50.7498 632.332C48.1985 629.781 46.7633 626.322 46.7592 622.714V520.357C46.7633 516.749 48.1985 513.29 50.7498 510.738C53.301 508.187 56.7601 506.752 60.3681 506.748H624.943C628.551 506.752 632.01 508.187 634.561 510.738C637.112 513.29 638.547 516.749 638.552 520.357V592.548C638.539 604.154 633.922 615.281 625.716 623.487C617.51 631.693 606.383 636.309 594.778 636.322Z" fill="white"/>
<path d="M524.3 553.151H361.547C360.616 553.151 359.723 552.781 359.065 552.123C358.407 551.465 358.037 550.572 358.037 549.641C358.037 548.71 358.407 547.818 359.065 547.159C359.723 546.501 360.616 546.131 361.547 546.131H524.3C525.231 546.131 526.123 546.501 526.782 547.159C527.44 547.818 527.81 548.71 527.81 549.641C527.81 550.572 527.44 551.465 526.782 552.123C526.123 552.781 525.231 553.151 524.3 553.151Z" fill="#3B82F6"/>
<path d="M565.494 573.983H320.352C319.421 573.983 318.529 573.614 317.871 572.955C317.212 572.297 316.843 571.404 316.843 570.474C316.843 569.543 317.212 568.65 317.871 567.992C318.529 567.334 319.421 566.964 320.352 566.964H565.494C566.425 566.964 567.318 567.334 567.976 567.992C568.634 568.65 569.004 569.543 569.004 570.474C569.004 571.404 568.634 572.297 567.976 572.955C567.318 573.614 566.425 573.983 565.494 573.983Z" fill="#E6E6E6"/>
<path d="M565.494 596.939H320.352C319.421 596.939 318.529 596.569 317.871 595.911C317.212 595.253 316.843 594.36 316.843 593.429C316.843 592.498 317.212 591.606 317.871 590.947C318.529 590.289 319.421 589.919 320.352 589.919H565.494C566.425 589.919 567.318 590.289 567.976 590.947C568.634 591.606 569.004 592.498 569.004 593.429C569.004 594.36 568.634 595.253 567.976 595.911C567.318 596.569 566.425 596.939 565.494 596.939Z" fill="#E6E6E6"/>
<path d="M563.213 428H510.213C506.765 428 503.458 429.37 501.02 431.808C498.582 434.246 497.213 437.552 497.213 441C497.213 444.448 498.582 447.754 501.02 450.192C503.458 452.63 506.765 454 510.213 454H563.213C566.66 454 569.967 452.63 572.405 450.192C574.843 447.754 576.213 444.448 576.213 441C576.213 437.552 574.843 434.246 572.405 431.808C569.967 429.37 566.66 428 563.213 428Z" fill="#3B82F6"/>
<path d="M431.383 626.306H429.383V703.349H574.04V701.349H431.383V626.306Z" fill="#3F3D56"/>
<path d="M648.213 703C648.209 699.553 646.839 696.249 644.401 693.811C641.964 691.374 638.659 690.003 635.213 690H582.213C578.765 690 575.458 691.37 573.02 693.808C570.582 696.246 569.213 699.552 569.213 703C569.213 706.448 570.582 709.754 573.02 712.192C575.458 714.63 578.765 716 582.213 716H635.213C638.659 715.997 641.964 714.626 644.401 712.189C646.839 709.751 648.209 706.447 648.213 703Z" fill="#3B82F6"/>
<path d="M431.223 633.78C437.82 633.78 443.169 628.432 443.169 621.835C443.169 615.237 437.82 609.889 431.223 609.889C424.625 609.889 419.277 615.237 419.277 621.835C419.277 628.432 424.625 633.78 431.223 633.78Z" fill="#E6E6E6"/>
<path d="M216.83 627.306H218.83V704.349H74.173V702.349H216.83V627.306Z" fill="#3F3D56"/>
<path d="M13 717H66C69.4478 717 72.7544 715.63 75.1924 713.192C77.6304 710.754 79 707.448 79 704C79 700.552 77.6304 697.246 75.1924 694.808C72.7544 692.37 69.4478 691 66 691H13C9.55219 691 6.24559 692.37 3.80762 694.808C1.36964 697.246 0 700.552 0 704C0 707.448 1.36964 710.754 3.80762 713.192C6.24559 715.63 9.55219 717 13 717Z" fill="#3B82F6"/>
<path d="M219.223 633.112C225.82 633.112 231.169 627.763 231.169 621.166C231.169 614.568 225.82 609.22 219.223 609.22C212.625 609.22 207.277 614.568 207.277 621.166C207.277 627.763 212.625 633.112 219.223 633.112Z" fill="#E6E6E6"/>
<path d="M104.106 607.346C123.989 607.346 140.106 591.229 140.106 571.346C140.106 551.464 123.989 535.346 104.106 535.346C84.2241 535.346 68.1063 551.464 68.1063 571.346C68.1063 591.229 84.2241 607.346 104.106 607.346Z" fill="#F2F2F2"/>
<path d="M240.507 552.962H216.754C215.823 552.962 214.93 552.592 214.272 551.934C213.614 551.276 213.244 550.383 213.244 549.452C213.244 548.522 213.614 547.629 214.272 546.971C214.93 546.312 215.823 545.943 216.754 545.943H240.507C241.438 545.943 242.33 546.312 242.989 546.971C243.647 547.629 244.017 548.522 244.017 549.452C244.017 550.383 243.647 551.276 242.989 551.934C242.33 552.592 241.438 552.962 240.507 552.962Z" fill="#3B82F6"/>
<path d="M281.701 573.795H175.559C174.629 573.795 173.736 573.425 173.078 572.767C172.419 572.109 172.05 571.216 172.05 570.285C172.05 569.354 172.419 568.462 173.078 567.803C173.736 567.145 174.629 566.775 175.559 566.775H281.701C282.632 566.775 283.525 567.145 284.183 567.803C284.841 568.462 285.211 569.354 285.211 570.285C285.211 571.216 284.841 572.109 284.183 572.767C283.525 573.425 282.632 573.795 281.701 573.795Z" fill="#E6E6E6"/>
<path d="M281.701 596.75H175.559C174.629 596.75 173.736 596.381 173.078 595.723C172.419 595.064 172.05 594.172 172.05 593.241C172.05 592.31 172.419 591.417 173.078 590.759C173.736 590.101 174.629 589.731 175.559 589.731H281.701C282.632 589.731 283.525 590.101 284.183 590.759C284.841 591.417 285.211 592.31 285.211 593.241C285.211 594.172 284.841 595.064 284.183 595.723C283.525 596.381 282.632 596.75 281.701 596.75Z" fill="#E6E6E6"/>
<line x1="357" y1="513" x2="357" y2="277" stroke="black" stroke-width="2"/>
<path d="M357.223 530.78C363.82 530.78 369.169 525.432 369.169 518.835C369.169 512.237 363.82 506.889 357.223 506.889C350.625 506.889 345.277 512.237 345.277 518.835C345.277 525.432 350.625 530.78 357.223 530.78Z" fill="#E6E6E6"/>
<path d="M351.78 55.56C367.122 55.56 379.56 43.1225 379.56 27.78C379.56 12.4375 367.122 0 351.78 0C336.437 0 324 12.4375 324 27.78C324 43.1225 336.437 55.56 351.78 55.56Z" fill="#FF8F41"/>
<path d="M352 38V40.5" stroke="white" stroke-width="2" stroke-linecap="round" stroke-linejoin="round"/>
<path d="M352 15.5V18" stroke="white" stroke-width="2" stroke-linecap="round" stroke-linejoin="round"/>
<path d="M358.25 38V40.5" stroke="white" stroke-width="2" stroke-linecap="round" stroke-linejoin="round"/>
<path d="M358.25 15.5V18" stroke="white" stroke-width="2" stroke-linecap="round" stroke-linejoin="round"/>
<path d="M339.5 28H342" stroke="white" stroke-width="2" stroke-linecap="round" stroke-linejoin="round"/>
<path d="M339.5 34.25H342" stroke="white" stroke-width="2" stroke-linecap="round" stroke-linejoin="round"/>
<path d="M339.5 21.75H342" stroke="white" stroke-width="2" stroke-linecap="round" stroke-linejoin="round"/>
<path d="M362 28H364.5" stroke="white" stroke-width="2" stroke-linecap="round" stroke-linejoin="round"/>
<path d="M362 34.25H364.5" stroke="white" stroke-width="2" stroke-linecap="round" stroke-linejoin="round"/>
<path d="M362 21.75H364.5" stroke="white" stroke-width="2" stroke-linecap="round" stroke-linejoin="round"/>
<path d="M345.75 38V40.5" stroke="white" stroke-width="2" stroke-linecap="round" stroke-linejoin="round"/>
<path d="M345.75 15.5V18" stroke="white" stroke-width="2" stroke-linecap="round" stroke-linejoin="round"/>
<path d="M359.5 18H344.5C343.119 18 342 19.1193 342 20.5V35.5C342 36.8807 343.119 38 344.5 38H359.5C360.881 38 362 36.8807 362 35.5V20.5C362 19.1193 360.881 18 359.5 18Z" stroke="white" stroke-width="2" stroke-linecap="round" stroke-linejoin="round"/>
<path d="M355.75 23H348.25C347.56 23 347 23.5596 347 24.25V31.75C347 32.4404 347.56 33 348.25 33H355.75C356.44 33 357 32.4404 357 31.75V24.25C357 23.5596 356.44 23 355.75 23Z" stroke="white" stroke-width="2" stroke-linecap="round" stroke-linejoin="round"/>
<path d="M585.8 110H568.2C566.985 110 566 110.985 566 112.2V116.6C566 117.815 566.985 118.8 568.2 118.8H585.8C587.015 118.8 588 117.815 588 116.6V112.2C588 110.985 587.015 110 585.8 110Z" stroke="white" stroke-width="2" stroke-linecap="round" stroke-linejoin="round"/>
<path d="M585.8 123.2H568.2C566.985 123.2 566 124.185 566 125.4V129.8C566 131.015 566.985 132 568.2 132H585.8C587.015 132 588 131.015 588 129.8V125.4C588 124.185 587.015 123.2 585.8 123.2Z" stroke="white" stroke-width="2" stroke-linecap="round" stroke-linejoin="round"/>
<path d="M570.4 114.4H570.41" stroke="white" stroke-width="2" stroke-linecap="round" stroke-linejoin="round"/>
<path d="M570.4 127.6H570.41" stroke="white" stroke-width="2" stroke-linecap="round" stroke-linejoin="round"/>
<path d="M128 131V133.5" stroke="white" stroke-width="2" stroke-linecap="round" stroke-linejoin="round"/>
<path d="M128 108.5V111" stroke="white" stroke-width="2" stroke-linecap="round" stroke-linejoin="round"/>
<path d="M134.25 131V133.5" stroke="white" stroke-width="2" stroke-linecap="round" stroke-linejoin="round"/>
<path d="M134.25 108.5V111" stroke="white" stroke-width="2" stroke-linecap="round" stroke-linejoin="round"/>
<path d="M115.5 121H118" stroke="white" stroke-width="2" stroke-linecap="round" stroke-linejoin="round"/>
<path d="M115.5 127.25H118" stroke="white" stroke-width="2" stroke-linecap="round" stroke-linejoin="round"/>
<path d="M115.5 114.75H118" stroke="white" stroke-width="2" stroke-linecap="round" stroke-linejoin="round"/>
<path d="M138 121H140.5" stroke="white" stroke-width="2" stroke-linecap="round" stroke-linejoin="round"/>
<path d="M138 127.25H140.5" stroke="white" stroke-width="2" stroke-linecap="round" stroke-linejoin="round"/>
<path d="M138 114.75H140.5" stroke="white" stroke-width="2" stroke-linecap="round" stroke-linejoin="round"/>
<path d="M121.75 131V133.5" stroke="white" stroke-width="2" stroke-linecap="round" stroke-linejoin="round"/>
<path d="M121.75 108.5V111" stroke="white" stroke-width="2" stroke-linecap="round" stroke-linejoin="round"/>
<path d="M135.5 111H120.5C119.119 111 118 112.119 118 113.5V128.5C118 129.881 119.119 131 120.5 131H135.5C136.881 131 138 129.881 138 128.5V113.5C138 112.119 136.881 111 135.5 111Z" stroke="white" stroke-width="2" stroke-linecap="round" stroke-linejoin="round"/>
<path d="M131.75 116H124.25C123.56 116 123 116.56 123 117.25V124.75C123 125.44 123.56 126 124.25 126H131.75C132.44 126 133 125.44 133 124.75V117.25C133 116.56 132.44 116 131.75 116Z" stroke="white" stroke-width="2" stroke-linecap="round" stroke-linejoin="round"/>
</svg>
