<svg id="Layer_1" enable-background="new 0 0 512 512" height="512" viewBox="0 0 512 512" width="512" xmlns="http://www.w3.org/2000/svg"><g><g><path d="m106 108c-8.284 0-15-6.716-15-15v-78c0-8.284 6.716-15 15-15s15 6.716 15 15v78c0 8.284-6.716 15-15 15z" fill="#fdbf00"/></g><g><path d="m166 108c-8.284 0-15-6.716-15-15v-78c0-8.284 6.716-15 15-15s15 6.716 15 15v78c0 8.284-6.716 15-15 15z" fill="#fdbf00"/></g><g><path d="m226 108c-8.284 0-15-6.716-15-15v-78c0-8.284 6.716-15 15-15s15 6.716 15 15v78c0 8.284-6.716 15-15 15z" fill="#fdbf00"/></g><g><path d="m286.001 108c-8.284 0-15-6.716-15-15v-78c0-8.284 6.716-15 15-15s15 6.716 15 15v78c0 8.284-6.716 15-15 15z" fill="#ff8856"/></g><g><path d="m346 108c-8.284 0-15-6.716-15-15v-78c0-8.284 6.716-15 15-15s15 6.716 15 15v78c0 8.284-6.716 15-15 15z" fill="#ff8856"/></g><g><path d="m406.001 108c-8.284 0-15-6.716-15-15v-78c0-8.284 6.716-15 15-15s15 6.716 15 15v78c0 8.284-6.716 15-15 15z" fill="#ff8856"/></g><g><path d="m106 512c-8.284 0-15-6.716-15-15v-78c0-8.284 6.716-15 15-15s15 6.716 15 15v78c0 8.284-6.716 15-15 15z" fill="#fdbf00"/></g><g><path d="m166 512c-8.284 0-15-6.716-15-15v-78c0-8.284 6.716-15 15-15s15 6.716 15 15v78c0 8.284-6.716 15-15 15z" fill="#fdbf00"/></g><g><path d="m226 512c-8.284 0-15-6.716-15-15v-78c0-8.284 6.716-15 15-15s15 6.716 15 15v78c0 8.284-6.716 15-15 15z" fill="#fdbf00"/></g><g fill="#ff8856"><path d="m286.001 512c-8.284 0-15-6.716-15-15v-78c0-8.284 6.716-15 15-15s15 6.716 15 15v78c0 8.284-6.716 15-15 15z"/><path d="m346 512c-8.284 0-15-6.716-15-15v-78c0-8.284 6.716-15 15-15s15 6.716 15 15v78c0 8.284-6.716 15-15 15z"/><path d="m406.001 512c-8.284 0-15-6.716-15-15v-78c0-8.284 6.716-15 15-15s15 6.716 15 15v78c0 8.284-6.716 15-15 15z"/></g><g><path d="m497 120.999h-78c-8.284 0-15-6.716-15-15s6.716-15 15-15h78c8.284 0 15 6.716 15 15s-6.716 15-15 15z" fill="#ff8856"/></g><g><path d="m497 181h-78c-8.284 0-15-6.716-15-15s6.716-15 15-15h78c8.284 0 15 6.716 15 15s-6.716 15-15 15z" fill="#ff8856"/></g><g><path d="m497 241h-78c-8.284 0-15-6.716-15-15s6.716-15 15-15h78c8.284 0 15 6.716 15 15s-6.716 15-15 15z" fill="#ff8856"/></g><g><path d="m497 301.001h-78c-8.284 0-15-6.716-15-15s6.716-15 15-15h78c8.284 0 15 6.716 15 15s-6.716 15-15 15z" fill="#ff8856"/></g><g><path d="m497 361h-78c-8.284 0-15-6.716-15-15s6.716-15 15-15h78c8.284 0 15 6.716 15 15s-6.716 15-15 15z" fill="#ff8856"/></g><g><path d="m497 421.001h-78c-8.284 0-15-6.716-15-15s6.716-15 15-15h78c8.284 0 15 6.716 15 15s-6.716 15-15 15z" fill="#ff8856"/></g><g><g><path d="m93 120.999h-78c-8.284 0-15-6.716-15-15s6.716-15 15-15h78c8.284 0 15 6.716 15 15s-6.716 15-15 15z" fill="#fdbf00"/></g><g><path d="m93 181h-78c-8.284 0-15-6.716-15-15s6.716-15 15-15h78c8.284 0 15 6.716 15 15s-6.716 15-15 15z" fill="#fdbf00"/></g><g><path d="m93 241h-78c-8.284 0-15-6.716-15-15s6.716-15 15-15h78c8.284 0 15 6.716 15 15s-6.716 15-15 15z" fill="#fdbf00"/></g><g><path d="m93 301.001h-78c-8.284 0-15-6.716-15-15s6.716-15 15-15h78c8.284 0 15 6.716 15 15s-6.716 15-15 15z" fill="#fdbf00"/></g><g><path d="m93 361h-78c-8.284 0-15-6.716-15-15s6.716-15 15-15h78c8.284 0 15 6.716 15 15s-6.716 15-15 15z" fill="#fdbf00"/></g><g><path d="m93 421.001h-78c-8.284 0-15-6.716-15-15s6.716-15 15-15h78c8.284 0 15 6.716 15 15s-6.716 15-15 15z" fill="#fdbf00"/></g></g><g><path d="m398.282 444h-284.563c-25.204 0-45.709-20.505-45.709-45.709v-284.583c0-25.203 20.505-45.708 45.709-45.708h284.563c25.203 0 45.708 20.505 45.708 45.708v284.583c0 25.204-20.505 45.709-45.708 45.709z" fill="#bee75e"/></g><path d="m398.282 68h-142.282v376h142.282c25.203 0 45.708-20.505 45.708-45.709v-284.583c0-25.203-20.505-45.708-45.708-45.708z" fill="#00cb75"/><g><path d="m343 373h-174c-3.979 0-7.794-1.58-10.606-4.394l-15-15c-2.814-2.812-4.394-6.627-4.394-10.606v-174c0-3.979 1.58-7.794 4.394-10.606l15-15c2.813-2.813 6.628-4.394 10.153-4.394h174c4.432 0 8.248 1.58 11.06 4.394l15 15c2.813 2.812 4.393 6.627 4.393 10.606v174c0 3.979-1.58 7.794-4.394 10.606l-15 15c-2.812 2.814-6.627 4.394-10.606 4.394z" fill="#00347b"/></g><path d="m368.606 158.394-15-15c-2.813-2.813-6.628-4.394-11.06-4.394h-86.546v234h87c3.979 0 7.794-1.58 10.606-4.394l15-15c2.814-2.812 4.394-6.627 4.394-10.606v-174c0-3.979-1.58-7.794-4.394-10.606z" fill="#001737"/><g><path d="m286 301h-60c-8.284 0-15-6.716-15-15v-60c0-8.284 6.716-15 15-15h60c8.284 0 15 6.716 15 15v60c0 8.284-6.716 15-15 15z" fill="#fdbf00"/></g><path d="m286 211h-30v90h30c8.284 0 15-6.716 15-15v-60c0-8.284-6.716-15-15-15z" fill="#ff8856"/></g></svg>